<svg version="1.1" id="Layer_1" xmlns="http://www.w3.org/2000/svg" xmlns:xlink="http://www.w3.org/1999/xlink" x="0px" y="0px"
	 width="100%" viewBox="0 0 1254 1254" enable-background="new 0 0 1254 1254" xml:space="preserve">
<path fill="#000001" opacity="1.000000" stroke="none" 
	d="
M817.000000,1255.000000 
	C544.666687,1255.000000 272.833344,1255.000000 1.000000,1255.000000 
	C1.000000,837.000000 1.000000,419.000000 1.000000,1.000000 
	C419.000000,1.000000 837.000000,1.000000 1255.000000,1.000000 
	C1255.000000,419.000000 1255.000000,837.000000 1255.000000,1255.000000 
	C1109.166626,1255.000000 963.333313,1255.000000 817.000000,1255.000000 
M448.916595,658.749695 
	C455.213379,690.306030 469.029663,718.311829 490.302521,742.271240 
	C537.364929,795.277100 596.245850,816.723022 665.928589,803.037415 
	C723.637146,791.703552 766.158691,758.114746 793.225037,705.983521 
	C812.675598,668.520813 819.099426,628.496826 811.159363,586.799011 
	C802.163696,539.557251 778.650574,500.833069 740.064392,471.963043 
	C696.510376,439.376129 647.408142,427.735474 594.205444,438.724335 
	C533.032104,451.359589 488.640808,486.726593 462.017517,543.434692 
	C444.861084,579.978210 440.571808,618.298218 448.916595,658.749695 
M424.708374,799.895630 
	C427.945801,791.251282 425.792114,783.753113 420.395203,776.559814 
	C386.804321,731.788025 367.818848,681.676697 366.175568,625.476440 
	C364.919373,582.515076 374.929230,541.982605 393.941895,503.606903 
	C421.203949,448.580475 462.090118,406.932007 517.813599,380.920715 
	C588.407776,347.967773 660.117188,346.445343 732.302124,376.198364 
	C744.134460,381.075409 756.632263,376.046600 761.802307,364.303162 
	C766.611511,353.379364 761.393005,341.001221 749.714539,335.927887 
	C702.294922,315.328064 652.874451,306.914948 601.351074,312.185089 
	C533.976746,319.076569 475.404022,345.940979 425.281952,391.199585 
	C389.605225,423.414490 363.061096,462.216949 345.246826,506.794556 
	C321.282715,566.761169 316.343964,628.223389 332.390839,691.049683 
	C342.824554,731.899597 361.110138,768.947144 386.235565,802.765869 
	C397.324860,817.692017 415.110901,816.896484 424.708374,799.895630 
M654.234070,924.635498 
	C715.859802,919.309204 771.446655,897.916992 819.224609,858.816528 
	C885.422119,804.641846 924.339417,734.575989 934.553223,649.361938 
	C940.622864,598.722412 932.790527,549.699829 914.371460,502.285492 
	C911.045593,493.724030 902.366882,488.124176 893.646545,488.565765 
	C884.035217,489.052521 875.925903,495.414734 873.559814,504.555298 
	C872.047424,510.398041 873.068848,515.961853 875.261292,521.596558 
	C889.859985,559.114014 896.500854,598.088623 892.573364,638.135498 
	C884.491028,720.547363 847.313660,787.203857 779.503967,835.092651 
	C717.729309,878.719482 648.875488,892.120972 574.731873,876.714111 
	C546.982483,870.947815 521.128052,860.099182 496.802490,845.548157 
	C485.756287,838.940552 472.848236,841.944092 466.748993,852.257446 
	C460.166382,863.388123 463.534210,876.159729 474.759003,882.815063 
	C529.882080,915.498169 589.471863,929.129333 654.234070,924.635498 
M829.277954,464.476776 
	C854.755188,468.824280 879.362122,451.683380 883.914062,426.417816 
	C888.379395,401.633759 872.011597,377.629700 847.383362,372.844177 
	C821.424377,367.800049 797.196838,383.761169 791.957031,409.359009 
	C786.780273,434.649078 802.722046,458.636749 829.277954,464.476776 
z"/>
<path fill="#FBFBFB" opacity="1.000000" stroke="none" 
	d="
M448.823792,658.335632 
	C440.571808,618.298218 444.861084,579.978210 462.017517,543.434692 
	C488.640808,486.726593 533.032104,451.359589 594.205444,438.724335 
	C647.408142,427.735474 696.510376,439.376129 740.064392,471.963043 
	C778.650574,500.833069 802.163696,539.557251 811.159363,586.799011 
	C819.099426,628.496826 812.675598,668.520813 793.225037,705.983521 
	C766.158691,758.114746 723.637146,791.703552 665.928589,803.037415 
	C596.245850,816.723022 537.364929,795.277100 490.302521,742.271240 
	C469.029663,718.311829 455.213379,690.306030 448.823792,658.335632 
M505.039062,698.431152 
	C535.710815,748.579834 592.925293,775.410889 651.045288,766.901550 
	C727.981628,755.637390 784.518921,682.177490 775.695801,605.029114 
	C767.731079,535.387024 712.093811,481.512695 644.713074,474.627533 
	C586.411377,468.670044 526.471741,500.332123 500.051941,552.545471 
	C475.158173,601.742981 476.580383,650.233643 505.039062,698.431152 
z"/>
<path fill="#FBFBFB" opacity="1.000000" stroke="none" 
	d="
M424.520782,800.239990 
	C415.110901,816.896484 397.324860,817.692017 386.235565,802.765869 
	C361.110138,768.947144 342.824554,731.899597 332.390839,691.049683 
	C316.343964,628.223389 321.282715,566.761169 345.246826,506.794556 
	C363.061096,462.216949 389.605225,423.414490 425.281952,391.199585 
	C475.404022,345.940979 533.976746,319.076569 601.351074,312.185089 
	C652.874451,306.914948 702.294922,315.328064 749.714539,335.927887 
	C761.393005,341.001221 766.611511,353.379364 761.802307,364.303162 
	C756.632263,376.046600 744.134460,381.075409 732.302124,376.198364 
	C660.117188,346.445343 588.407776,347.967773 517.813599,380.920715 
	C462.090118,406.932007 421.203949,448.580475 393.941895,503.606903 
	C374.929230,541.982605 364.919373,582.515076 366.175568,625.476440 
	C367.818848,681.676697 386.804321,731.788025 420.395203,776.559814 
	C425.792114,783.753113 427.945801,791.251282 424.520782,800.239990 
z"/>
<path fill="#FBFBFC" opacity="1.000000" stroke="none" 
	d="
M653.766602,924.673462 
	C589.471863,929.129333 529.882080,915.498169 474.759003,882.815063 
	C463.534210,876.159729 460.166382,863.388123 466.748993,852.257446 
	C472.848236,841.944092 485.756287,838.940552 496.802490,845.548157 
	C521.128052,860.099182 546.982483,870.947815 574.731873,876.714111 
	C648.875488,892.120972 717.729309,878.719482 779.503967,835.092651 
	C847.313660,787.203857 884.491028,720.547363 892.573364,638.135498 
	C896.500854,598.088623 889.859985,559.114014 875.261292,521.596558 
	C873.068848,515.961853 872.047424,510.398041 873.559814,504.555298 
	C875.925903,495.414734 884.035217,489.052521 893.646545,488.565765 
	C902.366882,488.124176 911.045593,493.724030 914.371460,502.285492 
	C932.790527,549.699829 940.622864,598.722412 934.553223,649.361938 
	C924.339417,734.575989 885.422119,804.641846 819.224609,858.816528 
	C771.446655,897.916992 715.859802,919.309204 653.766602,924.673462 
z"/>
<path fill="#4C38FC" opacity="1.000000" stroke="none" 
	d="
M828.859558,464.366882 
	C802.722046,458.636749 786.780273,434.649078 791.957031,409.359009 
	C797.196838,383.761169 821.424377,367.800049 847.383362,372.844177 
	C872.011597,377.629700 888.379395,401.633759 883.914062,426.417816 
	C879.362122,451.683380 854.755188,468.824280 828.859558,464.366882 
z"/>
<path fill="#020102" opacity="1.000000" stroke="none" 
	d="
M504.845978,698.124023 
	C476.580383,650.233643 475.158173,601.742981 500.051941,552.545471 
	C526.471741,500.332123 586.411377,468.670044 644.713074,474.627533 
	C712.093811,481.512695 767.731079,535.387024 775.695801,605.029114 
	C784.518921,682.177490 727.981628,755.637390 651.045288,766.901550 
	C592.925293,775.410889 535.710815,748.579834 504.845978,698.124023 
M632.285828,549.337463 
	C601.751709,549.240906 578.555298,562.389893 565.182312,589.731384 
	C540.970093,639.233948 579.944153,695.417664 631.899719,693.546875 
	C671.301941,692.128052 706.532654,657.939209 700.780334,611.801270 
	C696.156616,574.715332 665.342651,550.609131 632.285828,549.337463 
z"/>
<path fill="#4C38FC" opacity="1.000000" stroke="none" 
	d="
M632.735474,549.349182 
	C665.342651,550.609131 696.156616,574.715332 700.780334,611.801270 
	C706.532654,657.939209 671.301941,692.128052 631.899719,693.546875 
	C579.944153,695.417664 540.970093,639.233948 565.182312,589.731384 
	C578.555298,562.389893 601.751709,549.240906 632.735474,549.349182 
z"/>
</svg>